<svg width="164" height="147" viewBox="0 0 164 147" fill="none" xmlns="http://www.w3.org/2000/svg">
<path d="M108.702 109.089C138.69 109.089 162.999 84.7804 162.999 54.7946C162.999 24.8088 138.69 0.500488 108.702 0.500488C78.7148 0.500488 54.4053 24.8088 54.4053 54.7946C54.4053 84.7804 78.7148 109.089 108.702 109.089Z" fill="#F0F3F8"/>
<path d="M22.4304 11.3599C25.4292 11.3599 27.8601 8.92892 27.8601 5.93018C27.8601 2.93145 25.4292 0.500488 22.4304 0.500488C19.4317 0.500488 17.0007 2.93145 17.0007 5.93018C17.0007 8.92892 19.4317 11.3599 22.4304 11.3599Z" fill="#F0F3F8"/>
<path d="M152.743 146.5C155.742 146.5 158.173 144.068 158.173 141.069C158.173 138.071 155.742 135.639 152.743 135.639C149.744 135.639 147.313 138.071 147.313 141.069C147.313 144.068 149.744 146.5 152.743 146.5Z" fill="#F0F3F8"/>
<path d="M159.983 133.226C161.649 133.226 162.999 131.876 162.999 130.21C162.999 128.544 161.649 127.193 159.983 127.193C158.317 127.193 156.966 128.544 156.966 130.21C156.966 131.876 158.317 133.226 159.983 133.226Z" fill="#F0F3F8"/>
<path d="M29.6701 127.796C31.336 127.796 32.6866 126.446 32.6866 124.78C32.6866 123.114 31.336 121.763 29.6701 121.763C28.0041 121.763 26.6536 123.114 26.6536 124.78C26.6536 126.446 28.0041 127.796 29.6701 127.796Z" fill="#F0F3F8"/>
<path d="M95.0424 29.2023L99.3272 39.1662H105.06V29.2023H95.0424ZM104.203 38.3065H99.8928L96.3449 30.062H104.203V38.3065Z" fill="#8B9AB2"/>
<rect x="40.8375" y="60.6964" width="38.8199" height="22.9254" fill="white"/>
<path d="M77.3204 60.8994H43.3763C42.1937 60.8994 41.2339 61.8623 41.2339 63.0487V80.9391C41.2339 82.1255 42.1937 83.0883 43.3763 83.0883H77.3204C78.5031 83.0883 79.4628 82.1255 79.4628 80.9391V63.0487C79.4628 61.8623 78.5031 60.8994 77.3204 60.8994ZM78.6059 80.9391C78.6059 81.6526 78.0317 82.2286 77.3204 82.2286H43.3763C42.6736 82.2286 42.0908 81.6526 42.0908 80.9391V63.0487C42.0908 62.3351 42.6736 61.7591 43.3763 61.7591H77.3204C78.0317 61.7591 78.6059 62.3351 78.6059 63.0487V80.9391Z" fill="#8B9AB2"/>
<path d="M125.13 120.279L123.416 110.814H115.344V28.2824H133.34V20.5451H133.04L110.005 5.99033C109.893 5.93015 109.765 5.91296 109.645 5.95595L68.8708 20.5451H59.6414L50.0006 28.2824H59.53V41.2209C58.3302 41.4272 57.4047 42.4761 57.4047 43.7398C57.4047 45.0036 58.3302 46.0438 59.53 46.2502V48.1501H59.9585C60.8925 48.1501 61.6552 48.9152 61.6552 49.8523C61.6552 50.7894 60.8925 51.5459 59.9585 51.5459C59.5814 51.5459 59.2215 51.4256 58.9215 51.1935C58.733 51.0473 58.4673 51.0817 58.3217 51.2708C58.176 51.46 58.2103 51.7265 58.3988 51.8726C58.4759 51.9328 58.553 51.9844 58.6387 52.0274L41.5852 58.329C39.9742 58.3806 38.6887 59.7045 38.6887 61.3293V82.6585C38.6887 84.3178 40.0341 85.6675 41.6881 85.6675H79.0515C80.7054 85.6675 82.0509 84.3178 82.0509 82.6585V61.3293C82.0509 59.7045 80.7654 58.3892 79.1629 58.329L61.441 51.9242C62.0837 51.46 62.5122 50.7034 62.5122 49.8523C62.5122 48.5886 61.5867 47.5311 60.3869 47.3248V46.2502C61.5867 46.0438 62.5122 45.0036 62.5122 43.7398C62.5122 42.4761 61.5867 41.4272 60.3869 41.2209V28.2824H92.8057L98.2131 40.8856H104.22V110.814H96.1479L94.4339 120.279H39.9056V121.139H163.308V120.279H125.13ZM81.1768 61.3293V82.6585C81.1768 83.8449 80.217 84.8078 79.0344 84.8078H41.6709C40.4883 84.8078 39.5285 83.8449 39.5285 82.6585V61.3293C39.5285 60.143 40.4883 59.1801 41.6709 59.1801H79.0344C80.217 59.1801 81.1768 60.143 81.1768 61.3293ZM76.5835 58.3204H44.0704L60.1298 52.3884H60.1727L76.5835 58.3204ZM52.4258 27.4227L59.5128 21.7315V27.4227H52.4258ZM61.6381 43.7398C61.6381 44.6769 60.8754 45.4335 59.9413 45.4335C59.0072 45.4335 58.2445 44.6769 58.2445 43.7398C58.2445 42.8028 59.0072 42.0376 59.9413 42.0376C60.8754 42.0376 61.6381 42.8028 61.6381 43.7398ZM60.3698 27.4227V21.869L67.0798 27.4227H60.3698ZM68.5623 27.4227H68.4252L61.1582 21.4048H68.5623V27.4227ZM115.344 27.4227V21.6541L122.311 27.4227H115.344ZM123.793 27.4227H123.656L116.389 21.4048H123.793V27.4227ZM124.65 27.4227V21.869L131.36 27.4227H124.65ZM132.483 27.2336L125.447 21.4048H132.483V27.2336ZM131.429 20.5451H115.344V11.0884H115.095L112.773 8.75857L131.429 20.5451ZM105.197 21.4048H114.487V27.4227H105.197V21.4048ZM105.06 20.098V11.9481H113.818L105.06 20.098ZM105.84 20.5451L114.487 12.4983V20.5451H105.84ZM109.774 6.9618L113.878 11.0884H105.669L109.774 6.9618ZM108.128 7.40024L104.46 11.0884H104.203V20.5451H71.4074L108.128 7.40024ZM97.3733 21.4048H104.203V27.0616L97.3733 21.4048ZM103.286 27.4227H96.5763V21.869L103.286 27.4227ZM95.7194 21.4048V27.4227H95.5823L88.3152 21.4048H95.7194ZM69.4193 27.4227V21.869L76.1379 27.4227H69.4193ZM77.6204 27.4227H77.4833L70.2163 21.4048H77.6204V27.4227ZM78.4774 27.4227V21.869L85.1873 27.4227H78.4774ZM86.6699 27.4227H86.5328L79.2658 21.4048H86.6699V27.4227ZM87.5268 27.4227V21.869L94.2368 27.4227H87.5268ZM98.7616 40.0259L93.7398 28.3426H114.487V40.0259H98.7616ZM114.487 101.967V110.814H105.669L114.487 101.967ZM105.06 110.212V101.366H113.878L105.06 110.212ZM105.9 100.506L114.487 91.8831V100.506H105.9ZM105.06 100.128V91.2813H113.878L105.06 100.128ZM105.9 90.4216L114.487 81.8074V90.4216H105.9ZM105.06 90.052V81.2056H113.878L105.06 90.052ZM105.9 80.3459L114.487 71.7317V80.3459H105.9ZM105.06 79.9677V71.1213H113.878L105.06 79.9677ZM105.9 70.2616L114.487 61.6474V70.2616H105.9ZM105.06 69.892V61.0456H113.878L105.06 69.892ZM105.9 60.1859L114.487 51.5717V60.1859H105.9ZM105.06 59.8077V50.9699H113.878L105.06 59.8077ZM105.9 50.1102L114.487 41.4874V50.1102H105.9ZM105.06 49.732V40.8856H113.878L105.06 49.732ZM96.8506 111.673H122.696L123.733 117.356H95.8222L96.8506 111.673ZM95.2909 120.279L95.668 118.216H123.888L124.256 120.279H95.2909Z" fill="#8B9AB2"/>
<path d="M79.0344 59.1801H41.671C40.4884 59.1801 39.5286 60.1429 39.5286 61.3293V82.6585C39.5286 83.8449 40.4884 84.8078 41.671 84.8078H79.0344C80.217 84.8078 81.1768 83.8449 81.1768 82.6585V61.3293C81.1768 60.1429 80.217 59.1801 79.0344 59.1801ZM79.4629 80.9391C79.4629 82.1255 78.5031 83.0884 77.3205 83.0884H43.3763C42.1937 83.0884 41.2339 82.1255 41.2339 80.9391V63.0487C41.2339 61.8623 42.1937 60.8995 43.3763 60.8995H77.3205C78.5031 60.8995 79.4629 61.8623 79.4629 63.0487V80.9391Z" fill="#E3E6EC"/>
<path d="M123.733 117.356H95.8223L96.8506 111.674H122.697L123.733 117.356Z" fill="#E3E6EC"/>
<path d="M124.256 120.279H95.2909L95.668 118.216H123.888L124.256 120.279Z" fill="#8B9AB2"/>
<path d="M61.6381 43.7399C61.6381 44.6769 60.8754 45.4335 59.9413 45.4335C59.0072 45.4335 58.2445 44.6769 58.2445 43.7399C58.2445 42.8028 59.0072 42.0376 59.9413 42.0376C60.8754 42.0376 61.6381 42.8028 61.6381 43.7399Z" fill="#E3E6EC"/>
<path d="M93.7397 28.3426L98.7615 40.0259H114.487V28.3426H93.7397ZM105.06 39.1662H99.3271L95.0423 29.2023H105.06V39.1662Z" fill="#E3E6EC"/>
<path d="M51.3076 64.6215L47.1942 64.6272C46.721 64.6279 46.3378 65.0133 46.3385 65.4881L46.3385 65.5139C46.3392 65.9887 46.7234 66.3731 47.1967 66.3724L51.3101 66.3667C51.7834 66.366 52.1665 65.9806 52.1658 65.5058L52.1658 65.48C52.1651 65.0052 51.7809 64.6208 51.3076 64.6215Z" fill="#E3E6EC"/>
<path d="M68.2669 64.6064L62.7052 64.6142C62.2319 64.6148 61.8488 65.0003 61.8495 65.4751L61.8495 65.5008C61.8502 65.9756 62.2344 66.36 62.7077 66.3593L68.2693 66.3516C68.7426 66.3509 69.1257 65.9655 69.1251 65.4907L69.125 65.4649C69.1244 64.9901 68.7402 64.6057 68.2669 64.6064Z" fill="#E3E6EC"/>
<path d="M73.3571 64.5905L71.429 64.5932C70.9557 64.5939 70.5726 64.9793 70.5732 65.4541L70.5733 65.4799C70.5739 65.9547 70.9581 66.3391 71.4314 66.3384L73.3596 66.3357C73.8329 66.3351 74.216 65.9496 74.2153 65.4748L74.2153 65.449C74.2146 64.9742 73.8304 64.5899 73.3571 64.5905Z" fill="#E3E6EC"/>
<path d="M76.0264 67.4926L44.516 67.5368L44.5164 67.8291L76.0268 67.7849L76.0264 67.4926Z" fill="#E3E6EC"/>
<path d="M51.3137 68.9801L47.2003 68.9859C46.7271 68.9866 46.3439 69.372 46.3446 69.8468L46.3446 69.8726C46.3453 70.3474 46.7295 70.7318 47.2028 70.7311L51.3162 70.7253C51.7895 70.7247 52.1726 70.3392 52.1719 69.8644L52.1719 69.8386C52.1712 69.3638 51.787 68.9795 51.3137 68.9801Z" fill="#E3E6EC"/>
<path d="M68.2729 68.9564L62.7112 68.9642C62.2379 68.9648 61.8548 69.3503 61.8554 69.8251L61.8555 69.8509C61.8561 70.3257 62.2404 70.71 62.7136 70.7094L68.2753 70.7016C68.7486 70.7009 69.1317 70.3155 69.1311 69.8407L69.131 69.8149C69.1304 69.3401 68.7462 68.9557 68.2729 68.9564Z" fill="#E3E6EC"/>
<path d="M73.3547 68.9493L71.4265 68.952C70.9533 68.9526 70.5701 69.3381 70.5708 69.8129L70.5708 69.8387C70.5715 70.3135 70.9557 70.6978 71.429 70.6972L73.3571 70.6945C73.8304 70.6938 74.2135 70.3084 74.2129 69.8336L74.2129 69.8078C74.2122 69.333 73.828 68.9486 73.3547 68.9493Z" fill="#E3E6EC"/>
<path d="M76.041 71.8513L44.5306 71.8954L44.531 72.1877L76.0414 72.1436L76.041 71.8513Z" fill="#E3E6EC"/>
<path d="M51.3113 73.3388L47.1979 73.3446C46.7246 73.3453 46.3415 73.7307 46.3421 74.2055L46.3422 74.2313C46.3428 74.7061 46.727 75.0905 47.2003 75.0898L51.3137 75.084C51.787 75.0834 52.1702 74.6979 52.1695 74.2231L52.1695 74.1973C52.1688 73.7225 51.7846 73.3382 51.3113 73.3388Z" fill="#E3E6EC"/>
<path d="M68.2704 73.315L62.7088 73.3228C62.2355 73.3235 61.8523 73.7089 61.853 74.1837L61.853 74.2095C61.8537 74.6843 62.2379 75.0687 62.7112 75.068L68.2729 75.0602C68.7461 75.0596 69.1293 74.6741 69.1286 74.1993L69.1286 74.1735C69.1279 73.6987 68.7437 73.3144 68.2704 73.315Z" fill="#E3E6EC"/>
<path d="M73.3608 73.3079L71.4326 73.3106C70.9594 73.3113 70.5762 73.6967 70.5769 74.1715L70.5769 74.1973C70.5776 74.6721 70.9618 75.0565 71.4351 75.0558L73.3632 75.0531C73.8365 75.0525 74.2197 74.667 74.219 74.1922L74.219 74.1664C74.2183 73.6916 73.8341 73.3073 73.3608 73.3079Z" fill="#E3E6EC"/>
<path d="M76.0386 76.21L44.5282 76.2542L44.5286 76.5465L76.039 76.5023L76.0386 76.21Z" fill="#E3E6EC"/>
<path d="M51.326 77.6889L47.2125 77.6947C46.7393 77.6953 46.3561 78.0808 46.3568 78.5556L46.3568 78.5814C46.3575 79.0562 46.7417 79.4405 47.215 79.4399L51.3284 79.4341C51.8017 79.4334 52.1848 79.048 52.1841 78.5732L52.1841 78.5474C52.1834 78.0726 51.7992 77.6882 51.326 77.6889Z" fill="#E3E6EC"/>
<path d="M68.2851 77.6738L62.7234 77.6816C62.2501 77.6822 61.867 78.0677 61.8677 78.5425L61.8677 78.5683C61.8683 79.0431 62.2526 79.4274 62.7258 79.4268L68.2875 79.419C68.7608 79.4183 69.1439 79.0329 69.1433 78.5581L69.1432 78.5323C69.1426 78.0575 68.7584 77.6731 68.2851 77.6738Z" fill="#E3E6EC"/>
<path d="M73.3754 77.658L71.4473 77.6607C70.974 77.6613 70.5909 78.0468 70.5915 78.5216L70.5916 78.5474C70.5922 79.0222 70.9764 79.4065 71.4497 79.4059L73.3779 79.4032C73.8512 79.4025 74.2343 79.0171 74.2336 78.5423L74.2336 78.5165C74.2329 78.0417 73.8487 77.6573 73.3754 77.658Z" fill="#E3E6EC"/>
</svg>
