<svg width="35" height="35" viewBox="0 0 35 35" fill="none" xmlns="http://www.w3.org/2000/svg">
<path d="M6.00567 11.8804C4.87185 12.7513 3.65999 13.5278 2.3865 14.2015C2.35363 13.7783 2.34131 13.347 2.34131 12.9115C2.34131 11.1739 2.57136 9.44437 3.01503 7.76829C3.15881 7.55057 3.31081 7.33695 3.4628 7.12744C4.17349 8.77887 5.02385 10.3687 6.00567 11.8804Z" fill="#C8D5DE"/>
<path d="M25.9338 25.5643C23.2924 28.3988 20.0388 30.6213 16.4566 32.0344C8.95124 29.7175 3.52864 23.2884 2.51807 15.5201C3.99285 14.7725 5.39369 13.8934 6.70004 12.9033C11.2928 19.3899 18.2272 23.9416 25.9338 25.5643Z" fill="#C8D5DE"/>
<path d="M6.97122 11.108C5.936 9.49767 5.05688 7.78873 4.34619 6.02228C4.69537 5.61969 5.06099 5.23353 5.44714 4.86792C6.82333 6.12087 8.30222 7.26701 9.87149 8.26115C8.98005 9.28405 8.01055 10.2371 6.97122 11.108Z" fill="#B2C3CE"/>
<path d="M32.486 12.5706C31.6849 16.9498 29.7582 21.0496 26.8785 24.4962C19.1677 23.0666 12.2087 18.5889 7.66113 12.1311C8.84425 11.1533 9.94109 10.0729 10.9393 8.90625C15.7047 11.6668 21.1314 13.1211 26.669 13.1211C28.6285 13.1211 30.5798 12.928 32.486 12.5706Z" fill="#B2C3CE"/>
<path d="M14.6572 0.234131C13.7 2.80576 12.3444 5.18431 10.6683 7.30405C9.14422 6.3551 7.70641 5.25004 6.36719 4.03817C8.69644 2.09507 11.5392 0.747635 14.6572 0.234131Z" fill="#9DB2BF"/>
<path d="M32.8724 9.25539C32.8395 9.94143 32.7696 10.6193 32.6834 11.2765C30.7156 11.6791 28.6986 11.8886 26.6692 11.8886C21.4192 11.8886 16.2718 10.5248 11.7324 7.93672C13.5728 5.58692 15.0353 2.92903 16.0253 0.0616211C16.5101 0.0205408 17.003 0 17.5001 0C24.1551 0 29.9474 3.75474 32.8724 9.25539Z" fill="#9DB2BF"/>
<path d="M1.19512 14.793C0.878805 14.945 0.558379 15.0847 0.229736 15.2202C0.398166 13.8934 0.714483 12.6075 1.16637 11.3875C1.12939 11.8927 1.10885 12.4021 1.10885 12.9115C1.10885 13.5483 1.13761 14.1809 1.19512 14.793Z" fill="#DDE2E6"/>
<path d="M14.5915 32.6876C13.396 33.0532 12.1801 33.3367 10.9477 33.5298C4.58843 30.9335 0.0942383 24.6852 0.0942383 17.4058C0.0942383 17.1346 0.102455 16.8635 0.110671 16.5965C0.52969 16.4363 0.944603 16.2596 1.3513 16.0789C2.4769 23.6212 7.52978 29.9229 14.5915 32.6876Z" fill="#DDE2E6"/>
<path d="M17.5 34.8114C16.0663 34.8114 14.6696 34.6347 13.3345 34.3061C14.4765 34.0309 15.6062 33.6858 16.6989 33.2627C20.8768 31.6564 24.6398 28.9985 27.5811 25.5765C30.9333 21.6739 33.0982 16.9373 33.8418 11.8927C33.8582 11.7818 33.8705 11.6626 33.887 11.5476C34.5442 13.3798 34.9057 15.3516 34.9057 17.4057C34.9057 27.002 27.0964 34.8114 17.5 34.8114Z" fill="#DDE2E6"/>
</svg>
