<svg width="92" height="80" viewBox="0 0 92 80" fill="none" xmlns="http://www.w3.org/2000/svg">
<path d="M35.8984 38.1764C36.0072 37.8208 36.1267 37.4453 36.2719 37.0897C36.3076 37.0185 36.3076 36.983 36.3441 36.9118C36.0188 36.5198 35.7291 36.1286 35.4395 35.7365C34.3548 34.2776 33.27 32.7822 32.3297 31.2166C32.1034 31.5476 31.898 31.8923 31.7148 32.2487C31.338 32.968 31.0589 33.7339 30.8848 34.5265C30.5595 36.1286 30.7404 37.8348 31.2467 39.4741C31.6442 40.7917 32.2592 42.0728 32.9829 43.2828L38.5517 48.9425C38.2621 48.4802 37.9708 48.017 37.7218 47.5547C37.0703 46.3083 36.4919 45.0271 36.0943 43.6385C35.6968 42.2498 35.5134 40.7917 35.6603 39.3319C35.7038 38.9402 35.7835 38.5534 35.8984 38.1764Z" fill="url(#paint0_linear_47_16412)"/>
<path d="M35.1863 24.8803C36.5613 23.6448 38.0373 22.5257 39.599 21.5347C41.1479 20.5486 42.7554 19.657 44.4127 18.8649C44.5571 18.7938 44.738 18.7227 44.8832 18.6515V11.8174C43.832 12.2442 42.8192 12.7068 41.8448 13.2052C38.5457 14.8468 35.4497 16.8658 32.6193 19.2214C32.2931 19.5059 31.9321 19.7904 31.606 20.1105C31.606 20.6804 31.6425 21.2138 31.679 21.7481C31.868 23.6096 32.2933 25.4397 32.9446 27.1945C33.0534 27.0878 33.1256 26.9811 33.2335 26.8736C33.848 26.1747 34.4999 25.5093 35.1863 24.8803Z" fill="url(#paint1_linear_47_16412)"/>
<path d="M30.5212 39.7585C29.7975 38.1217 29.3277 36.2351 29.5452 34.3486C29.6174 33.4231 29.907 32.462 30.2315 31.5721C30.5399 30.8053 30.9151 30.0669 31.3528 29.3654C30.3046 27.2299 29.5087 24.9157 29.1468 22.5312C29.0024 22.6735 28.858 22.8513 28.7128 22.9944C27.5558 24.3823 26.5433 25.8768 26.1093 27.5855C25.6752 29.2943 25.6752 31.142 25.9648 32.9243C26.2577 34.5381 26.7309 36.1142 27.3757 37.623L27.5932 37.8372L31.8964 42.2149C31.3943 41.4212 30.9352 40.6012 30.5212 39.7585Z" fill="url(#paint2_linear_47_16412)"/>
<path d="M34.5356 8.25757C33.523 10.3939 32.6915 12.6006 32.1852 14.8742C32.04 15.4441 31.9678 16.0131 31.8599 16.583V16.7252C33.0105 15.6614 34.2304 14.6745 35.5116 13.7709C36.3075 13.201 37.1034 12.632 37.935 12.1333C38.7666 11.6345 39.599 11.1011 40.4663 10.6387C41.9144 9.84555 43.4112 9.14417 44.9479 8.53878V0C44.9479 0 41.2257 2.13552 35.3672 6.69191C35.0451 7.15424 34.7887 7.69185 34.5356 8.25757Z" fill="url(#paint3_linear_47_16412)"/>
<path d="M25.2412 33.1387C24.6993 31.2877 24.4453 29.33 24.8072 27.3367C24.9524 26.3442 25.3134 25.379 25.7118 24.4535C26.1195 23.5521 26.616 22.6932 27.1941 21.8895C27.7368 21.1452 28.3153 20.395 28.8938 19.6829V18.1172C28.8938 17.4771 29.0025 16.8361 29.039 16.1959C29.1469 15.5549 29.2199 14.9139 29.3643 14.2738C29.6174 13.0569 29.9436 11.8563 30.3412 10.6785C29.3643 11.5328 28.3493 12.3872 27.3028 13.3483C15.4414 23.9903 24.6628 34.7754 27.1219 37.3014C26.2996 36.0099 25.6664 34.6082 25.2412 33.1387Z" fill="url(#paint4_linear_47_16412)"/>
<path d="M40.4306 31.8921C41.5518 30.9319 42.7453 30.1131 44.0109 29.3282C44.2997 29.1503 44.5919 28.9725 44.9147 28.7939V21.8191C43.5769 22.4245 42.2747 23.0647 41.0091 23.7776C39.5268 24.6312 38.0802 25.5567 36.7415 26.6244C35.7018 27.4297 34.7338 28.3229 33.8484 29.2942C34.7165 31.1452 35.8012 32.9607 36.959 34.705C37.0589 34.8758 37.1675 35.0414 37.2843 35.2012C37.3208 35.1657 37.3565 35.0946 37.393 35.059C38.2603 33.8506 39.3094 32.8176 40.4306 31.8921Z" fill="url(#paint5_linear_47_16412)"/>
<path d="M39.6712 41.6849C39.0966 40.6292 38.4439 39.6176 37.7184 38.6586C37.6097 38.5519 37.5375 38.4105 37.4288 38.303L37.32 38.5883L37.1756 39.0507C37.1391 39.1929 37.1034 39.3707 37.0669 39.513C36.8179 40.7594 36.8503 42.1117 37.1034 43.4284C37.32 44.7459 37.7541 46.0626 38.2604 47.3438C38.5857 48.1626 38.9475 48.9459 39.3451 49.7291L44.9148 55.3532C44.2641 52.9688 43.5404 50.6554 42.6739 48.3413C41.805 46.0593 40.8282 43.8171 39.6712 41.6849Z" fill="url(#paint6_linear_47_16412)"/>
<path d="M41.9852 33.8856C40.8704 34.5842 39.84 35.4084 38.9145 36.342C38.7356 36.5228 38.5666 36.713 38.4082 36.9119C38.6248 37.1964 38.8057 37.5165 39.0224 37.8374C39.707 38.9001 40.3232 40.0051 40.8673 41.1457C41.952 43.4235 42.7479 45.7773 43.3986 48.1577C44.0493 50.538 44.5895 52.9332 44.9149 55.3847V32.2488C43.9007 32.7247 42.9217 33.2717 41.9852 33.8856Z" fill="url(#paint7_linear_47_16412)"/>
<path d="M56.0823 38.102C55.9736 37.7464 55.8723 37.4453 55.7279 37.0897C55.6914 37.0185 55.6914 36.983 55.6557 36.9118C55.9811 36.5198 56.2707 36.1286 56.5595 35.7365C57.6442 34.2776 58.7298 32.7822 59.6701 31.2166C59.8961 31.5476 60.1013 31.8923 60.2843 32.2487C60.6614 32.9678 60.9405 33.7338 61.1142 34.5265C61.4395 36.1286 61.2586 37.8348 60.7523 39.4741C60.354 40.7917 59.7398 42.0728 59.0161 43.2828L53.4473 48.9425C53.7361 48.4802 54.0282 48.017 54.2772 47.5547C54.9279 46.3083 55.5072 45.0271 55.9047 43.6385C56.3022 42.2498 56.4857 40.7917 56.3388 39.3319C56.2979 38.9139 56.2119 38.5016 56.0823 38.102Z" fill="url(#paint8_linear_47_16412)"/>
<path d="M56.8128 24.8803C55.4381 23.6448 53.9623 22.5257 52.4009 21.5347C50.8519 20.5488 49.2444 19.6572 47.5873 18.8649C47.442 18.7938 47.2619 18.7227 47.1167 18.6515V11.8174C48.1679 12.2442 49.1807 12.7068 50.1551 13.2052C53.4541 14.8471 56.5501 16.866 59.3806 19.2214C59.7068 19.5059 60.0678 19.7904 60.3931 20.1105C60.3931 20.6804 60.3574 21.2138 60.3209 21.7481C60.1319 23.6096 59.7066 25.4397 59.0553 27.1945C58.9474 27.0878 58.8744 26.9811 58.7656 26.8736C58.1515 26.1743 57.4996 25.5089 56.8128 24.8803Z" fill="url(#paint9_linear_47_16412)"/>
<path d="M61.442 39.7585C62.1657 38.1217 62.6354 36.2351 62.4188 34.3486C62.3458 33.4231 62.057 32.462 61.7316 31.5721C61.4222 30.8052 61.0459 30.0668 60.6071 29.3654C61.6561 27.2299 62.4512 24.9157 62.813 22.5312C62.9575 22.6735 63.1019 22.8513 63.2471 22.9944C64.404 24.3823 65.4174 25.8768 65.8506 27.5855C66.2838 29.2943 66.2847 31.142 65.9958 32.9243C65.7026 34.538 65.2294 36.114 64.585 37.623L64.3683 37.8372L60.0676 42.2149C60.5967 41.4376 61.0566 40.6157 61.442 39.7585Z" fill="url(#paint10_linear_47_16412)"/>
<path d="M57.4641 8.25757C58.4766 10.3939 59.3082 12.6006 59.8145 14.8742C59.9589 15.4441 60.0311 16.0131 60.1398 16.583V16.7252C58.9891 15.6614 57.7692 14.6745 56.4881 13.7709C55.6922 13.201 54.8971 12.632 54.0655 12.1333C53.2339 11.6345 52.4057 11.1011 51.5334 10.6387C50.0853 9.84552 48.5885 9.14414 47.0518 8.53878V0C47.0518 0 50.7765 2.13552 56.6358 6.69191C56.9477 7.19422 57.2244 7.71734 57.4641 8.25757Z" fill="url(#paint11_linear_47_16412)"/>
<path d="M66.7578 33.1387C67.3006 31.2877 67.5537 29.33 67.1919 27.3367C67.0475 26.3442 66.6856 25.379 66.2881 24.4535C65.8804 23.5519 65.3836 22.693 64.805 21.8895C64.263 21.1452 63.6846 20.395 63.1053 19.6829V18.1172C63.1053 17.4771 62.9974 16.8361 62.9609 16.1959C62.8521 15.5549 62.7799 14.9139 62.6355 14.2738C62.3825 13.0569 62.0563 11.8563 61.6587 10.6785C62.6355 11.5328 63.6505 12.3872 64.6971 13.3483C76.5585 23.9903 67.3371 34.7754 64.8772 37.3014C65.7001 36.0103 66.3334 34.6085 66.7578 33.1387Z" fill="url(#paint12_linear_47_16412)"/>
<path d="M51.5685 31.8921C50.4481 30.9319 49.2547 30.1131 47.989 29.3282C47.6994 29.1503 47.408 28.9725 47.0852 28.7939V21.8191C48.4231 22.4245 49.7252 23.0647 50.9909 23.7776C52.474 24.6312 53.9197 25.5567 55.2576 26.6244C56.2976 27.4297 57.2658 28.3229 58.1515 29.2942C57.2826 31.1452 56.1979 32.9607 55.0409 34.705C54.9322 34.8828 54.8235 35.0606 54.7156 35.2012C54.6791 35.1657 54.6426 35.0946 54.6069 35.059C53.7388 33.8506 52.6541 32.8176 51.5685 31.8921Z" fill="url(#paint13_linear_47_16412)"/>
<path d="M52.3285 41.6849C52.9031 40.6292 53.5558 39.6176 54.2813 38.6586C54.39 38.5519 54.4622 38.4105 54.5701 38.303L54.6788 38.5883L54.8233 39.0507C54.8598 39.1929 54.8963 39.3707 54.932 39.513C55.181 40.7594 55.1494 42.1117 54.8963 43.4284C54.6788 44.7459 54.2448 46.0626 53.7344 47.3438C53.409 48.1626 53.0472 48.9459 52.6497 49.7291L47.0808 55.3532C47.7315 52.9688 48.4543 50.6554 49.3216 48.3413C50.1947 46.0593 51.135 43.8171 52.3285 41.6849Z" fill="url(#paint14_linear_47_16412)"/>
<path d="M50.014 33.8856C51.1288 34.5842 52.1592 35.4085 53.0848 36.342C53.2634 36.523 53.4324 36.7132 53.591 36.9119C53.3736 37.1964 53.1935 37.5165 52.9761 37.8374C52.2917 38.9001 51.6758 40.0051 51.132 41.1457C50.0464 43.4235 49.2513 45.7773 48.6007 48.1577C47.95 50.538 47.4114 52.9332 47.0852 55.3847V32.2488C48.0991 32.7247 49.0778 33.2717 50.014 33.8856Z" fill="url(#paint15_linear_47_16412)"/>
<path d="M13.255 65.6336V79.7419C13.255 79.962 13.181 79.9978 12.9998 79.9978H12.5932C12.4078 79.9978 12.3338 79.9245 12.3338 79.7419V70.2997C12.3338 69.2336 12.3704 68.0584 12.4818 66.8464H12.4452C11.9264 67.9117 11.4449 68.8294 10.8903 69.7854L7.18416 76.2878C7.10931 76.4353 7.0353 76.5087 6.85072 76.5087H6.59553C6.4101 76.5087 6.34035 76.472 6.22552 76.2878L2.44622 69.7112C1.89373 68.7878 1.39858 67.831 0.963596 66.8464H0.92702C1.00102 68.0584 1.03845 69.1603 1.03845 70.2997V79.7419C1.03845 79.962 0.963596 79.9978 0.783265 79.9978H0.408994C0.186983 79.9978 0.153809 79.9245 0.153809 79.7419V65.6336C0.153809 65.4136 0.227812 65.3778 0.413247 65.3778H0.744988C0.966999 65.3778 1.04185 65.4511 1.15243 65.5987L6.69931 75.3326L12.2156 65.597C12.3261 65.4136 12.3627 65.3411 12.5856 65.3411H12.9939C13.181 65.3394 13.255 65.4136 13.255 65.6336Z" fill="black"/>
<path d="M25.6572 65.6336V66.0046C25.6572 66.188 25.5832 66.2605 25.402 66.2605H17.6273V72.1385H24.5131C24.6977 72.1385 24.7725 72.2127 24.7725 72.3944V72.762C24.7725 72.982 24.6977 73.0178 24.5131 73.0178H17.6239V79.0801H25.6937C25.8792 79.0801 25.9532 79.1535 25.9532 79.336V79.7027C25.9532 79.9236 25.8792 79.9586 25.6937 79.9586H16.9205C16.6976 79.9586 16.6653 79.8852 16.6653 79.7027V65.597C16.6653 65.3761 16.7393 65.3411 16.9205 65.3411H25.3986C25.6206 65.3394 25.6572 65.4136 25.6572 65.6336Z" fill="black"/>
<path d="M38.9479 69.4545C38.9479 71.8426 37.541 73.2387 35.2826 73.4221C36.0609 73.753 36.5415 74.2673 36.9838 75.1125L39.3162 79.7044C39.4276 79.8519 39.3911 79.9602 39.1691 79.9602H38.7676C38.4341 79.9602 38.3227 79.9236 38.2487 79.7402L36.1017 75.4758C35.3983 74.1172 34.6208 73.5295 32.8813 73.5295H29.4337V79.701C29.4337 79.9219 29.3597 79.9568 29.1786 79.9568H28.7303C28.5083 79.9568 28.4751 79.8835 28.4751 79.701V65.5969C28.4751 65.376 28.5483 65.3411 28.7303 65.3411H34.6906C37.3215 65.3394 38.9479 66.8464 38.9479 69.4545ZM34.6166 66.2212H29.4337V72.6511H34.6166C36.6895 72.6511 37.9484 71.5116 37.9484 69.4545C37.9484 67.3974 36.7261 66.2212 34.6166 66.2212Z" fill="black"/>
<path d="M46.7473 65.301C49.8359 65.301 51.2913 66.5002 52.0007 68.7569C52.0722 68.9684 52.0007 69.0042 51.8238 69.11L51.4682 69.2157C51.2556 69.2507 51.185 69.2507 51.1135 69.075C50.5105 67.0997 49.3383 66.1829 46.7473 66.1829C43.7999 66.1829 42.3088 67.6993 42.3088 70.1675V75.0699C42.3088 77.5432 43.8705 79.0904 46.7473 79.0904C49.4097 79.0904 50.5453 78.0669 51.1493 76.0933C51.2199 75.9168 51.2913 75.881 51.504 75.9518L51.8944 76.0933C52.0722 76.1633 52.1079 76.2341 52.0365 76.4106C51.3619 78.6673 49.9422 79.9373 46.7473 79.9373C43.2674 79.9373 41.3884 78.0678 41.3884 75.0349V70.2034C41.4208 67.1697 43.2317 65.301 46.7473 65.301Z" fill="black"/>
<path d="M65.7516 79.9986H65.3816C65.0856 79.9986 64.9742 79.9619 64.9367 79.7786L63.0858 75.2225H56.2001L54.3865 79.7786C54.3117 79.9619 54.2377 79.9986 53.9051 79.9986H53.5342C53.3122 79.9986 53.279 79.8886 53.3496 79.7427L59.0879 65.4877C59.1619 65.3035 59.2359 65.2319 59.4579 65.2319H59.8628C59.9444 65.2253 60.0258 65.2471 60.0933 65.2937C60.1607 65.3404 60.21 65.4089 60.2328 65.4877L65.9711 79.7427C66.0111 79.8886 65.9736 79.9986 65.7516 79.9986ZM59.6434 66.182H59.5693C59.552 66.4804 59.5024 66.7761 59.4213 67.0638L56.4603 74.3781H62.7906L59.8288 67.0664C59.7174 66.6621 59.6799 66.2946 59.6434 66.1845V66.182Z" fill="black"/>
<path d="M78.7824 65.6337V79.742C78.7824 79.962 78.7093 79.9978 78.5272 79.9978H78.0832C78.0249 80.0049 77.9657 79.9948 77.913 79.9688C77.8603 79.9427 77.8163 79.9018 77.7863 79.8511L70.4532 69.3812C69.7497 68.426 69.1943 67.2865 68.7868 66.6989H68.7502C68.7502 67.4708 68.8608 68.7927 68.8608 70.1155V79.7044C68.8608 79.9253 68.7868 79.9603 68.6056 79.9603H68.199C67.977 79.9603 67.9438 79.887 67.9438 79.7044V65.597C67.9438 65.3761 68.0179 65.3411 68.199 65.3411H68.6065C68.6643 65.3378 68.7219 65.3496 68.7738 65.3753C68.8257 65.401 68.87 65.4398 68.9025 65.4878L76.0843 75.6652C76.8617 76.7671 77.4912 77.9066 78.0101 78.6042H78.0466C78.0466 77.6857 77.8986 76.3262 77.8986 74.8934V65.597C77.8986 65.4136 77.9726 65.3411 78.1538 65.3411H78.5613C78.7467 65.3394 78.7824 65.4136 78.7824 65.6337Z" fill="black"/>
<path d="M86.4089 65.2966C89.0739 65.2966 90.6025 66.2484 91.6326 68.367C91.7398 68.5435 91.6683 68.6493 91.5263 68.7201L91.135 68.8958C90.9929 68.9666 90.9223 68.9666 90.8151 68.79C89.9271 67.0271 88.6478 66.216 86.4447 66.216C83.886 66.216 82.394 67.3094 82.394 69.2139C82.394 71.5414 84.5971 71.9286 86.8717 72.1759C89.2874 72.4582 91.8461 72.8813 91.8461 75.9141C91.8461 78.4881 90.0691 79.9346 86.5867 79.9346C83.7797 79.9346 82.1805 78.8412 81.221 76.4779C81.1496 76.2663 81.1504 76.1956 81.3631 76.1256L81.7544 75.984C81.9321 75.9141 82.0027 75.9491 82.1091 76.1256C82.9597 78.1359 84.3836 79.0527 86.6224 79.0527C89.5009 79.0527 90.9606 78.0292 90.9606 75.9141C90.9606 73.5866 88.8995 73.2702 86.7313 73.022C84.2441 72.7397 81.5426 72.3167 81.5426 69.2489C81.3988 66.848 83.2472 65.2966 86.4089 65.2966Z" fill="black"/>
<defs>
<linearGradient id="paint0_linear_47_16412" x1="34.6345" y1="2.22242" x2="34.6345" y2="55.3069" gradientUnits="userSpaceOnUse">
<stop stop-color="#28B7B7"/>
<stop offset="0.47" stop-color="#1497BA"/>
<stop offset="0.98" stop-color="#007AA4"/>
</linearGradient>
<linearGradient id="paint1_linear_47_16412" x1="38.2421" y1="2.22243" x2="38.2421" y2="55.3069" gradientUnits="userSpaceOnUse">
<stop stop-color="#28B7B7"/>
<stop offset="0.47" stop-color="#1497BA"/>
<stop offset="0.98" stop-color="#007AA4"/>
</linearGradient>
<linearGradient id="paint2_linear_47_16412" x1="28.8289" y1="2.2223" x2="28.8289" y2="55.3068" gradientUnits="userSpaceOnUse">
<stop stop-color="#28B7B7"/>
<stop offset="0.47" stop-color="#1497BA"/>
<stop offset="0.98" stop-color="#007AA4"/>
</linearGradient>
<linearGradient id="paint3_linear_47_16412" x1="38.4055" y1="2.22236" x2="38.4055" y2="55.3069" gradientUnits="userSpaceOnUse">
<stop stop-color="#28B7B7"/>
<stop offset="0.47" stop-color="#1497BA"/>
<stop offset="0.98" stop-color="#007AA4"/>
</linearGradient>
<linearGradient id="paint4_linear_47_16412" x1="25.8628" y1="2.2224" x2="25.8628" y2="55.3069" gradientUnits="userSpaceOnUse">
<stop stop-color="#28B7B7"/>
<stop offset="0.47" stop-color="#1497BA"/>
<stop offset="0.98" stop-color="#007AA4"/>
</linearGradient>
<linearGradient id="paint5_linear_47_16412" x1="39.3816" y1="2.22225" x2="39.3816" y2="55.3067" gradientUnits="userSpaceOnUse">
<stop stop-color="#28B7B7"/>
<stop offset="0.47" stop-color="#1497BA"/>
<stop offset="0.98" stop-color="#007AA4"/>
</linearGradient>
<linearGradient id="paint6_linear_47_16412" x1="40.9045" y1="2.22242" x2="40.9045" y2="55.3069" gradientUnits="userSpaceOnUse">
<stop stop-color="#28B7B7"/>
<stop offset="0.47" stop-color="#1497BA"/>
<stop offset="0.98" stop-color="#007AA4"/>
</linearGradient>
<linearGradient id="paint7_linear_47_16412" x1="41.6599" y1="2.22245" x2="41.6599" y2="55.307" gradientUnits="userSpaceOnUse">
<stop stop-color="#28B7B7"/>
<stop offset="0.47" stop-color="#1497BA"/>
<stop offset="0.98" stop-color="#007AA4"/>
</linearGradient>
<linearGradient id="paint8_linear_47_16412" x1="57.3645" y1="2.22242" x2="57.3645" y2="55.3069" gradientUnits="userSpaceOnUse">
<stop stop-color="#28B7B7"/>
<stop offset="0.47" stop-color="#1497BA"/>
<stop offset="0.98" stop-color="#007AA4"/>
</linearGradient>
<linearGradient id="paint9_linear_47_16412" x1="53.757" y1="2.22243" x2="53.757" y2="55.3069" gradientUnits="userSpaceOnUse">
<stop stop-color="#28B7B7"/>
<stop offset="0.47" stop-color="#1497BA"/>
<stop offset="0.98" stop-color="#007AA4"/>
</linearGradient>
<linearGradient id="paint10_linear_47_16412" x1="63.1342" y1="2.2223" x2="63.1342" y2="55.3068" gradientUnits="userSpaceOnUse">
<stop stop-color="#28B7B7"/>
<stop offset="0.47" stop-color="#1497BA"/>
<stop offset="0.98" stop-color="#007AA4"/>
</linearGradient>
<linearGradient id="paint11_linear_47_16412" x1="53.5941" y1="2.22236" x2="53.5941" y2="55.3069" gradientUnits="userSpaceOnUse">
<stop stop-color="#28B7B7"/>
<stop offset="0.47" stop-color="#1497BA"/>
<stop offset="0.98" stop-color="#007AA4"/>
</linearGradient>
<linearGradient id="paint12_linear_47_16412" x1="66.137" y1="2.2224" x2="66.137" y2="55.3069" gradientUnits="userSpaceOnUse">
<stop stop-color="#28B7B7"/>
<stop offset="0.47" stop-color="#1497BA"/>
<stop offset="0.98" stop-color="#007AA4"/>
</linearGradient>
<linearGradient id="paint13_linear_47_16412" x1="52.6184" y1="2.22225" x2="52.6184" y2="55.3067" gradientUnits="userSpaceOnUse">
<stop stop-color="#28B7B7"/>
<stop offset="0.47" stop-color="#1497BA"/>
<stop offset="0.98" stop-color="#007AA4"/>
</linearGradient>
<linearGradient id="paint14_linear_47_16412" x1="51.0944" y1="2.22242" x2="51.0944" y2="55.3069" gradientUnits="userSpaceOnUse">
<stop stop-color="#28B7B7"/>
<stop offset="0.47" stop-color="#1497BA"/>
<stop offset="0.98" stop-color="#007AA4"/>
</linearGradient>
<linearGradient id="paint15_linear_47_16412" x1="50.3394" y1="2.22245" x2="50.3394" y2="55.307" gradientUnits="userSpaceOnUse">
<stop stop-color="#28B7B7"/>
<stop offset="0.47" stop-color="#1497BA"/>
<stop offset="0.98" stop-color="#007AA4"/>
</linearGradient>
</defs>
</svg>
